<svg width="191" height="33" viewBox="0 0 191 33" fill="none" xmlns="http://www.w3.org/2000/svg">
<g clip-path="url(#clip0_117_264)">
<g clip-path="url(#clip1_117_264)">
<path d="M141.945 10.9198C143.634 10.9198 144.996 11.4372 146.031 12.4719C147.081 13.4915 147.606 14.8154 147.606 16.4436C147.606 18.0718 147.081 19.4033 146.031 20.4381C144.996 21.4577 143.634 21.9674 141.945 21.9674C140.241 21.9674 138.863 21.4577 137.813 20.4381C136.779 19.4033 136.261 18.0718 136.261 16.4436C136.261 14.8154 136.779 13.4915 137.813 12.4719C138.863 11.4372 140.241 10.9198 141.945 10.9198ZM140.119 18.5892C140.575 19.137 141.184 19.411 141.945 19.411C142.706 19.411 143.307 19.137 143.748 18.5892C144.205 18.0414 144.433 17.3262 144.433 16.4436C144.433 15.561 144.205 14.8458 143.748 14.298C143.307 13.7502 142.706 13.4763 141.945 13.4763C141.184 13.4763 140.575 13.7502 140.119 14.298C139.662 14.8458 139.434 15.561 139.434 16.4436C139.434 17.3262 139.662 18.0414 140.119 18.5892Z" fill="white"/>
<path d="M117.869 10.9198C119.253 10.9198 120.349 11.285 121.156 12.0154C121.977 12.7306 122.388 13.6284 122.388 14.7089L122.32 15.5078L119.558 15.6675C119.588 15.6067 119.603 15.4469 119.603 15.1882C119.603 14.7013 119.444 14.298 119.124 13.9784C118.82 13.6437 118.386 13.4763 117.823 13.4763C117.108 13.4763 116.53 13.7426 116.088 14.2752C115.662 14.8078 115.449 15.5078 115.449 16.3751C115.449 17.3186 115.685 18.0642 116.157 18.6121C116.644 19.1447 117.336 19.411 118.234 19.411C119.512 19.411 120.494 18.9925 121.178 18.1555L122.708 20.1185C122.312 20.6207 121.711 21.0544 120.904 21.4196C120.098 21.7848 119.139 21.9674 118.028 21.9674C116.248 21.9674 114.84 21.4653 113.806 20.4609C112.786 19.4414 112.276 18.1175 112.276 16.4893C112.276 14.8306 112.794 13.4915 113.829 12.4719C114.863 11.4372 116.21 10.9198 117.869 10.9198Z" fill="white"/>
<path d="M106.492 19.5936C107.603 19.5936 108.531 19.1827 109.277 18.361L110.76 20.0729C110.35 20.6055 109.741 21.0544 108.934 21.4196C108.143 21.7848 107.207 21.9674 106.127 21.9674C104.346 21.9674 102.931 21.4577 101.881 20.4381C100.846 19.4186 100.329 18.0871 100.329 16.4436C100.329 14.8154 100.831 13.4915 101.836 12.4719C102.84 11.4372 104.171 10.9198 105.83 10.9198C107.367 10.9198 108.577 11.3915 109.459 12.335C110.342 13.2785 110.783 14.5034 110.783 16.0099L110.692 17.1512H103.433C103.57 17.8968 103.898 18.4903 104.415 18.9316C104.932 19.3729 105.625 19.5936 106.492 19.5936ZM105.83 13.2937C105.206 13.2937 104.674 13.4915 104.232 13.8871C103.806 14.2676 103.54 14.8154 103.433 15.5306H107.93C107.915 14.8763 107.717 14.3437 107.337 13.9328C106.971 13.5067 106.469 13.2937 105.83 13.2937Z" fill="white"/>
<path d="M95.8545 11.0568H98.3197V21.4196C98.3197 23.0022 97.7719 24.2728 96.6763 25.2315C95.5806 26.1902 94.1122 26.6695 92.2709 26.6695C90.3079 26.6695 88.6949 26.2434 87.4319 25.3913L87.7442 23.2358C88.7333 23.9815 90.8481 24.1587 92.2024 24.1587C93.1155 24.1587 93.8383 23.9304 94.3709 23.4739C94.9187 23.0326 95.1926 22.3783 95.1926 21.5109V20.187C94.4926 21.2066 93.4122 21.7163 91.9513 21.7163C90.5209 21.7163 89.3492 21.2446 88.4362 20.3012C87.5232 19.3425 87.0667 18.011 87.0667 16.3067C87.0667 14.6784 87.5003 13.3774 88.3677 12.4035C89.2351 11.4144 90.4068 10.9198 91.8829 10.9198C93.6024 10.9198 94.7817 11.6426 95.4208 13.0882H95.4893C95.4741 12.9209 95.5045 12.6165 95.5806 12.1752C95.6567 11.7339 95.748 11.3611 95.8545 11.0568ZM92.7274 19.0914C93.4731 19.0914 94.0665 18.8327 94.5078 18.3153C94.9643 17.7827 95.1926 17.1969 95.1926 16.5577V16.0784C95.1926 15.3936 94.9643 14.8002 94.5078 14.298C94.0513 13.7958 93.435 13.5448 92.6589 13.5448C91.9285 13.5448 91.3427 13.7958 90.9014 14.298C90.4601 14.8002 90.2394 15.4697 90.2394 16.3067C90.2394 17.1588 90.4601 17.836 90.9014 18.3381C91.3579 18.8403 91.9666 19.0914 92.7274 19.0914Z" fill="white"/>
<path d="M81.0996 10.9198C82.393 10.9198 83.3821 11.3154 84.0669 12.1067C84.7669 12.898 85.1169 13.9328 85.1169 15.211V21.8305H81.9898V15.7588C81.9898 15.1045 81.8224 14.5871 81.4876 14.2067C81.168 13.8111 80.7039 13.6132 80.0952 13.6132C79.3496 13.6132 78.779 13.8795 78.3833 14.4121C78.0029 14.9447 77.8127 15.561 77.8127 16.261V21.8305H74.6855V11.0568L77.1279 10.9655C77.3866 11.772 77.5159 12.5252 77.5159 13.2252H77.6072C78.2311 11.6883 79.3952 10.9198 81.0996 10.9198Z" fill="white"/>
<path d="M72.5853 7.60998C72.5853 8.17301 72.3875 8.63714 71.9918 9.00235C71.5962 9.36756 71.1169 9.55016 70.5538 9.55016C69.9908 9.55016 69.5115 9.36756 69.1158 9.00235C68.7354 8.63714 68.5452 8.17301 68.5452 7.60998C68.5452 7.06216 68.7354 6.60565 69.1158 6.24044C69.5115 5.86001 69.9908 5.6698 70.5538 5.6698C71.1169 5.6698 71.5962 5.86001 71.9918 6.24044C72.3875 6.60565 72.5853 7.06216 72.5853 7.60998ZM68.9789 21.8304V11.0567L72.106 10.9654V21.8304H68.9789Z" fill="white"/>
<path d="M61.3193 10.9198C63.0084 10.9198 64.3704 11.4372 65.4051 12.4719C66.4551 13.4915 66.9801 14.8154 66.9801 16.4436C66.9801 18.0718 66.4551 19.4033 65.4051 20.4381C64.3704 21.4577 63.0084 21.9674 61.3193 21.9674C59.615 21.9674 58.2379 21.4577 57.1879 20.4381C56.1531 19.4033 55.6357 18.0718 55.6357 16.4436C55.6357 14.8154 56.1531 13.4915 57.1879 12.4719C58.2379 11.4372 59.615 10.9198 61.3193 10.9198ZM59.4933 18.5892C59.9498 19.137 60.5585 19.411 61.3193 19.411C62.0802 19.411 62.6813 19.137 63.1226 18.5892C63.5791 18.0414 63.8073 17.3262 63.8073 16.4436C63.8073 15.561 63.5791 14.8458 63.1226 14.298C62.6813 13.7502 62.0802 13.4763 61.3193 13.4763C60.5585 13.4763 59.9498 13.7502 59.4933 14.298C59.0368 14.8458 58.8085 15.561 58.8085 16.4436C58.8085 17.3262 59.0368 18.0414 59.4933 18.5892Z" fill="white"/>
<path d="M49.5923 10.9198C50.977 10.9198 52.0727 11.285 52.8792 12.0154C53.7009 12.7306 54.1118 13.6284 54.1118 14.7089L54.0433 15.5078L51.2814 15.6675C51.3118 15.6067 51.327 15.4469 51.327 15.1882C51.327 14.7013 51.1673 14.298 50.8477 13.9784C50.5434 13.6437 50.1097 13.4763 49.5466 13.4763C48.8314 13.4763 48.2532 13.7426 47.8119 14.2752C47.3858 14.8078 47.1728 15.5078 47.1728 16.3751C47.1728 17.3186 47.4086 18.0642 47.8804 18.6121C48.3673 19.1447 49.0597 19.411 49.9575 19.411C51.2357 19.411 52.2172 18.9925 52.902 18.1555L54.4313 20.1185C54.0357 20.6207 53.4346 21.0544 52.6281 21.4196C51.8216 21.7848 50.8629 21.9674 49.7521 21.9674C47.9717 21.9674 46.5641 21.4653 45.5293 20.4609C44.5098 19.4414 44 18.1175 44 16.4893C44 14.8306 44.5174 13.4915 45.5521 12.4719C46.5869 11.4372 47.9336 10.9198 49.5923 10.9198Z" fill="white"/>
<path d="M132.411 17.0345C133.059 18.1694 133.706 19.0928 134.381 20.0546C134.673 20.4719 134.971 20.8964 135.276 21.3486C135.664 21.9231 135.161 22.6116 134.521 22.3467C132.023 21.3136 130.199 19.3696 128.949 17.5394H127.61V21.8306H124.483V5.7157H127.61V15.0971H128.934C129.786 15.0971 130.456 14.8384 130.943 14.321C131.43 13.8036 131.673 13.0656 131.673 12.1069C131.673 11.8634 131.643 11.5134 131.582 11.0569H134.572C134.648 11.4069 134.686 11.7797 134.686 12.1754C134.686 14.2948 133.74 16.1105 132.411 17.0345Z" fill="white"/>
</g>
<g clip-path="url(#clip2_117_264)">
<path d="M31.9998 16.3728C32.0398 25.273 24.9085 32.5201 16.0727 32.5604C7.23579 32.6007 0.0401701 25.4183 0.000167473 16.518C-0.0398351 7.61781 7.09154 0.370648 15.9285 0.330359C24.7642 0.291291 31.9598 7.47252 31.9998 16.3728Z" fill="#FFE866"/>
<path d="M24.1145 10.6788C22.9532 10.3406 21.7507 9.85959 20.5312 9.3749C20.4609 9.06723 20.1906 8.68388 19.6426 8.21384C18.8462 7.51793 17.3504 7.53625 16.0582 7.84391C14.6314 7.50573 13.2216 7.38486 11.8688 7.71205C0.806272 10.7826 7.0782 18.2702 3.01611 25.7994C3.59433 27.0337 9.97166 32.964 18.8377 32.3055C18.8377 32.3055 15.7551 24.8447 22.7119 21.2626C28.3547 18.3582 32.4314 12.9643 24.1132 10.6776L24.1145 10.6788Z" fill="#4BCC00"/>
<path d="M16.8243 12.474C16.8243 14.1954 15.4387 15.5897 13.7307 15.5897C12.0228 15.5897 10.6372 14.1954 10.6372 12.474C10.6372 10.7525 12.0228 9.3595 13.7307 9.3595C15.4387 9.3595 16.8243 10.7537 16.8243 12.474Z" fill="white"/>
<path d="M27.9862 16.958C25.4806 18.7368 22.6283 20.0859 18.5856 20.0859C16.6933 20.0859 16.3091 18.0604 15.0581 19.053C14.412 19.5658 12.1355 20.7122 10.3281 20.6255C8.50493 20.5376 5.59444 19.4705 4.77621 15.5869C4.45255 19.4705 4.28769 22.3323 2.83911 25.6116C6.39506 30.8376 12.5951 33.4377 18.8377 32.3069C18.1674 27.5906 22.2598 22.972 24.5654 20.6084C25.4382 19.7135 27.111 18.2521 27.9862 16.958Z" fill="#4BCC00"/>
<ellipse cx="15.0348" cy="12.4526" rx="1.81532" ry="2.54145" fill="#0D1217"/>
<path d="M15.7609 7.838C16.7513 8.23386 20.3681 9.43851 21.9329 9.91139C20.3352 7.26031 17.914 7.41329 15.7609 7.838Z" fill="#35AF00"/>
<path d="M15.0347 12.4524L12.8563 11.0001V13.9046L15.0347 12.4524Z" fill="white"/>
</g>
<rect x="152" y="5.66919" width="38.3204" height="19.7726" rx="5.78022" fill="#A6EF5F"/>
<path d="M179.996 20.0857V11.0252H181.904V20.0857H179.996Z" fill="#0D1217"/>
<path d="M173.538 11.0252C174.746 11.0252 175.679 11.2998 176.338 11.8489C177.006 12.3889 177.34 13.1851 177.34 14.2376C177.34 15.2717 177.015 16.068 176.366 16.6262C175.716 17.1754 174.86 17.4499 173.799 17.4499H172.234V20.0857H170.284V11.0252H173.538ZM173.428 15.9124C174.05 15.9124 174.526 15.7705 174.856 15.4868C175.194 15.194 175.364 14.7775 175.364 14.2376C175.364 13.7159 175.19 13.3086 174.842 13.0158C174.503 12.7138 174.004 12.5627 173.346 12.5627H172.234V15.9124H173.428Z" fill="#0D1217"/>
<path d="M165.919 20.0857L165.288 18.1501H162.007L161.375 20.0857H159.385L162.597 11.0252H164.698L167.896 20.0857H165.919ZM162.487 16.6812H164.821L163.942 13.9905C163.823 13.6427 163.732 13.2995 163.668 12.9609H163.627C163.59 13.1988 163.499 13.5466 163.352 14.0042L162.487 16.6812Z" fill="#0D1217"/>
</g>
<defs>
<clipPath id="clip0_117_264">
<rect width="191" height="33" fill="white"/>
</clipPath>
<clipPath id="clip1_117_264">
<rect width="104" height="21" fill="white" transform="translate(44 5.6698)"/>
</clipPath>
<clipPath id="clip2_117_264">
<rect width="32" height="32.3396" fill="white" transform="translate(0 0.3302)"/>
</clipPath>
</defs>
</svg>
